<svg width="155" height="155" viewBox="0 0 155 155" fill="none" xmlns="http://www.w3.org/2000/svg">
<rect width="155" height="155" fill="#E5E5E5"/>
<g filter="url(#filter0_d)">
<circle cx="77.5" cy="73.5" r="73.5" fill="url(#paint0_radial)"/>
<circle cx="77.5" cy="73.5" r="73.5" fill="url(#paint1_angular)"/>
<circle cx="77.5" cy="73.5" r="73.5" fill="url(#paint2_linear)"/>
</g>
<path d="M24.4984 59H32.9884C34.1484 59 35.0384 59.32 35.6584 59.96C36.2784 60.58 36.5884 61.46 36.5884 62.6V67.55C36.5884 68.69 36.2784 69.58 35.6584 70.22C35.0384 70.84 34.1484 71.15 32.9884 71.15H31.3984L37.5484 80H35.0284L29.0284 71.15H26.5984V80H24.4984V59ZM26.5984 60.95V69.23H32.9284C33.9684 69.23 34.4884 68.69 34.4884 67.61V62.57C34.4884 61.49 33.9684 60.95 32.9284 60.95H26.5984ZM40.3074 65.84L43.3074 65H46.7274C47.9074 65 48.7974 65.32 49.3974 65.96C50.0174 66.58 50.3274 67.46 50.3274 68.6V77.63L50.6574 80L48.5874 80.24L48.2574 77.57L44.8974 80H43.4274C42.2674 80 41.3774 79.69 40.7574 79.07C40.1374 78.43 39.8274 77.54 39.8274 76.4V74.57C39.8274 73.43 40.1374 72.55 40.7574 71.93C41.3774 71.29 42.2674 70.97 43.4274 70.97H48.2274V68.57C48.2274 67.49 47.7074 66.95 46.6674 66.95H43.3074L40.8474 67.67L40.3074 65.84ZM43.4874 78.08H44.3574L48.2274 75.26V72.83H43.4874C42.4474 72.83 41.9274 73.37 41.9274 74.45V76.46C41.9274 77.54 42.4474 78.08 43.4874 78.08ZM65.0792 77.72L65.3792 80L63.3092 80.24L62.9792 77.6V68.57C62.9792 67.49 62.4592 66.95 61.4192 66.95H60.4592L56.6792 69.05V80H54.5792V67.49L54.2792 65.06L56.3192 64.79L56.5892 66.92L59.9792 65H61.4792C62.6392 65 63.5292 65.32 64.1492 65.96C64.7692 66.58 65.0792 67.46 65.0792 68.6V77.72ZM73.4848 78.08L77.2948 75.98V67.61L73.8748 66.95H72.5248C71.4848 66.95 70.9648 67.49 70.9648 68.57V76.46C70.9648 77.54 71.4848 78.08 72.5248 78.08H73.4848ZM77.2948 60.2L76.9648 57.71L79.0348 57.44L79.3948 60.2V77.66L79.6948 80.03L77.6548 80.27L77.3548 78.08L73.9648 80H72.4648C71.3048 80 70.4148 79.69 69.7948 79.07C69.1748 78.43 68.8648 77.54 68.8648 76.4V68.6C68.8648 67.46 69.1748 66.58 69.7948 65.96C70.4148 65.32 71.3048 65 72.4648 65H73.8748L77.2948 65.66V60.2ZM90.3575 66.95H87.1775C86.1375 66.95 85.6175 67.49 85.6175 68.57V76.46C85.6175 77.54 86.1375 78.08 87.1775 78.08H90.3575C91.3975 78.08 91.9175 77.54 91.9175 76.46V68.57C91.9175 67.49 91.3975 66.95 90.3575 66.95ZM90.4175 80H87.1175C85.9375 80 85.0375 79.69 84.4175 79.07C83.8175 78.45 83.5175 77.56 83.5175 76.4V68.6C83.5175 67.46 83.8175 66.58 84.4175 65.96C85.0375 65.32 85.9375 65 87.1175 65H90.4175C91.5975 65 92.4875 65.32 93.0875 65.96C93.7075 66.58 94.0175 67.46 94.0175 68.6V76.4C94.0175 77.56 93.7075 78.45 93.0875 79.07C92.4875 79.69 91.5975 80 90.4175 80ZM113.538 77.6V68.93C113.538 68.19 113.408 67.68 113.148 67.4C112.888 67.1 112.438 66.95 111.798 66.95L107.838 69.05V80H105.738V68.93C105.738 68.21 105.608 67.7 105.348 67.4C105.088 67.1 104.638 66.95 103.998 66.95L100.068 69.05V80H97.9679V67.04L97.6679 65.06L99.7079 64.79L99.9779 66.92L103.368 65H104.238C105.958 65 107.078 65.67 107.598 67.01L111.168 65H112.038C113.198 65 114.088 65.32 114.708 65.96C115.328 66.58 115.638 67.46 115.638 68.6V77.72L115.938 80L113.868 80.24L113.538 77.6ZM126.451 66.95H123.271C122.231 66.95 121.711 67.49 121.711 68.57V76.46C121.711 77.54 122.231 78.08 123.271 78.08H126.451C127.491 78.08 128.011 77.54 128.011 76.46V68.57C128.011 67.49 127.491 66.95 126.451 66.95ZM126.511 80H123.211C122.031 80 121.131 79.69 120.511 79.07C119.911 78.45 119.611 77.56 119.611 76.4V68.6C119.611 67.46 119.911 66.58 120.511 65.96C121.131 65.32 122.031 65 123.211 65H126.511C127.691 65 128.581 65.32 129.181 65.96C129.801 66.58 130.111 67.46 130.111 68.6V76.4C130.111 77.56 129.801 78.45 129.181 79.07C128.581 79.69 127.691 80 126.511 80Z" fill="black"/>
<defs>
<filter id="filter0_d" x="0" y="0" width="155" height="155" filterUnits="userSpaceOnUse" color-interpolation-filters="sRGB">
<feFlood flood-opacity="0" result="BackgroundImageFix"/>
<feColorMatrix in="SourceAlpha" type="matrix" values="0 0 0 0 0 0 0 0 0 0 0 0 0 0 0 0 0 0 127 0"/>
<feOffset dy="4"/>
<feGaussianBlur stdDeviation="2"/>
<feColorMatrix type="matrix" values="0 0 0 0 0 0 0 0 0 0 0 0 0 0 0 0 0 0 0.25 0"/>
<feBlend mode="normal" in2="BackgroundImageFix" result="effect1_dropShadow"/>
<feBlend mode="normal" in="SourceGraphic" in2="effect1_dropShadow" result="shape"/>
</filter>
<radialGradient id="paint0_radial" cx="0" cy="0" r="1" gradientUnits="userSpaceOnUse" gradientTransform="translate(77.5 73.5) rotate(90) scale(73.5)">
<stop offset="0.9999" stop-color="#27D88D"/>
<stop offset="1" stop-color="#79C9A7" stop-opacity="0"/>
</radialGradient>
<radialGradient id="paint1_angular" cx="0" cy="0" r="1" gradientUnits="userSpaceOnUse" gradientTransform="translate(77.2696 91) rotate(89.7643) scale(56.0005 56.004)">
<stop offset="0.157742" stop-color="white"/>
<stop offset="0.515625" stop-color="#2743D2" stop-opacity="0.65"/>
<stop offset="0.588379" stop-color="#0C31F2" stop-opacity="0.13"/>
<stop offset="0.885417" stop-color="white" stop-opacity="0"/>
</radialGradient>
<linearGradient id="paint2_linear" x1="77" y1="89" x2="77.2696" y2="19" gradientUnits="userSpaceOnUse">
<stop stop-color="#FF8D8D" stop-opacity="0.71"/>
<stop offset="0.0001" stop-color="white" stop-opacity="0.04"/>
</linearGradient>
</defs>
</svg>
