<svg width="327" height="155" viewBox="0 0 327 155" fill="none" xmlns="http://www.w3.org/2000/svg">
<g filter="url(#filter0_d)">
<ellipse cx="163.5" cy="73.5" rx="159.5" ry="73.5" fill="url(#paint0_radial)"/>
<ellipse cx="163.5" cy="73.5" rx="159.5" ry="73.5" fill="url(#paint1_angular)"/>
<ellipse cx="163.5" cy="73.5" rx="159.5" ry="73.5" fill="url(#paint2_linear)"/>
</g>
<path d="M83.84 83.12L86.04 82.88C86.8133 82.8 87.32 82.6533 87.56 82.44C87.8267 82.2 87.96 81.6533 87.96 80.8V62.08C87.96 61.68 87.9333 61.3333 87.88 61.04C87.8533 60.7467 87.7733 60.5067 87.64 60.32C87.5067 60.1333 87.28 59.9733 86.96 59.84C86.6667 59.7067 86.2667 59.6 85.76 59.52L84 59.2C84 59.0933 83.9867 59 83.96 58.92C83.96 58.8133 83.96 58.7067 83.96 58.6C84.52 58.6 85 58.6133 85.4 58.64C85.8 58.64 86.1467 58.6133 86.44 58.56L91.68 58.28C92.3467 58.2 93.04 58.16 93.76 58.16C96.8267 58.16 99.1067 58.6133 100.6 59.52C102.12 60.4267 102.88 62 102.88 64.24C102.88 65.8133 102.48 67.0667 101.68 68C100.907 68.9067 99.7067 69.7467 98.08 70.52L102.48 78.32C103.093 79.3867 103.627 80.2133 104.08 80.8C104.533 81.36 104.973 81.8 105.4 82.12C105.853 82.4133 106.32 82.6133 106.8 82.72C107.307 82.8 107.92 82.8933 108.64 83V83.64C108.08 83.6133 107.467 83.6 106.8 83.6C106.16 83.6 105.467 83.6 104.72 83.6C103.973 83.6 103.347 83.6 102.84 83.6C102.333 83.6 101.933 83.6133 101.64 83.64L95.52 72.32C95.0933 71.4933 94.4267 71.08 93.52 71.08H91.28V80.56C91.28 81.2 91.4 81.6667 91.64 81.96C91.9067 82.2533 92.36 82.48 93 82.64L94.96 83.12V83.76C93.04 83.6533 91.1067 83.6 89.16 83.6C87.2133 83.6 85.44 83.6533 83.84 83.76V83.12ZM91.28 70C96.6667 70.1867 99.36 68.48 99.36 64.88C99.36 63.2 98.76 61.8533 97.56 60.84C96.36 59.8267 94.72 59.32 92.64 59.32C92.4267 59.32 92.2 59.3333 91.96 59.36C91.7467 59.36 91.52 59.3733 91.28 59.4V70ZM116.16 84.04C115.067 84.04 114.107 83.8533 113.28 83.48C112.453 83.08 111.76 82.5467 111.2 81.88C110.667 81.2133 110.267 80.4267 110 79.52C109.733 78.6133 109.6 77.64 109.6 76.6C109.6 75.1867 109.84 73.9467 110.32 72.88C110.8 71.7867 111.427 70.88 112.2 70.16C112.973 69.44 113.853 68.8933 114.84 68.52C115.827 68.1467 116.827 67.96 117.84 67.96C118.32 67.96 118.787 68.0133 119.24 68.12C119.693 68.2267 120.093 68.3467 120.44 68.48C120.84 68.6133 121.213 68.7733 121.56 68.96L123.76 67.84L124.12 67.96C124.12 70.04 124.12 72.12 124.12 74.2C124.147 76.28 124.16 78.36 124.16 80.44C124.16 81.5067 124.613 82.0133 125.52 81.96C125.733 81.96 125.907 81.9333 126.04 81.88C126.2 81.8 126.347 81.72 126.48 81.64C126.613 81.5333 126.733 81.4267 126.84 81.32L127.24 81.52C127.053 82 126.813 82.4267 126.52 82.8C126.28 83.12 125.973 83.4133 125.6 83.68C125.227 83.92 124.773 84.04 124.24 84.04C123.387 84.04 122.773 83.76 122.4 83.2C122.027 82.64 121.84 81.8533 121.84 80.84V79.68C121.653 80.24 121.4 80.7867 121.08 81.32C120.787 81.8267 120.413 82.2933 119.96 82.72C119.507 83.12 118.96 83.44 118.32 83.68C117.707 83.92 116.987 84.04 116.16 84.04ZM121.88 75.24C121.88 73.32 121.533 71.8267 120.84 70.76C120.173 69.6667 118.987 69.12 117.28 69.12C116.693 69.12 116.08 69.24 115.44 69.48C114.8 69.72 114.213 70.1067 113.68 70.64C113.147 71.1467 112.707 71.8133 112.36 72.64C112.013 73.4667 111.84 74.4533 111.84 75.6C111.84 76.5067 111.96 77.3733 112.2 78.2C112.44 79 112.773 79.72 113.2 80.36C113.653 80.9733 114.2 81.4667 114.84 81.84C115.507 82.1867 116.253 82.36 117.08 82.36C117.747 82.36 118.373 82.2 118.96 81.88C119.547 81.5333 120.053 81.0667 120.48 80.48C120.907 79.8667 121.24 79.16 121.48 78.36C121.747 77.5333 121.88 76.64 121.88 75.68V75.24ZM148.514 83.72C145.741 83.56 142.968 83.56 140.194 83.72V83.08L142.394 82.76C142.981 82.68 143.274 82.16 143.274 81.2V74.44C143.274 72.9467 143.021 71.7467 142.514 70.84C142.008 69.9333 141.021 69.48 139.554 69.48C137.848 69.48 136.181 70.2933 134.554 71.92V81.64C134.554 82.0667 134.874 82.36 135.514 82.52L137.874 83.08V83.72C137.501 83.6933 137.061 83.6667 136.554 83.64C136.048 83.6133 135.488 83.6 134.874 83.6H133.554C131.661 83.6 130.221 83.64 129.234 83.72V83.08L131.354 82.68C131.888 82.6 132.154 82.2 132.154 81.48V73.56C132.154 72.7333 131.981 72.1733 131.634 71.88C131.314 71.5867 130.728 71.3733 129.874 71.24V70.52C131.554 70.12 132.901 68.92 133.914 66.92H134.554V70.52C135.568 69.64 136.688 68.9467 137.914 68.44C139.141 67.9067 140.221 67.64 141.154 67.64C144.221 67.64 145.754 69.4667 145.754 73.12V81.08C145.754 81.5867 145.821 81.9733 145.954 82.24C146.088 82.5067 146.354 82.68 146.754 82.76L148.514 83.08V83.72ZM163.803 61.8C163.803 61.2667 163.763 60.84 163.683 60.52C163.63 60.2 163.483 59.9467 163.243 59.76C163.03 59.5467 162.71 59.3733 162.283 59.24C161.883 59.08 161.35 58.92 160.683 58.76V58.12C161.537 58.0667 162.35 57.96 163.123 57.8C163.897 57.64 164.63 57.44 165.323 57.2H166.323V80.88C166.323 81.36 166.35 81.7333 166.403 82C166.457 82.2667 166.577 82.4667 166.763 82.6C166.95 82.7067 167.217 82.7733 167.563 82.8C167.937 82.8267 168.43 82.8533 169.043 82.88V83.52C168.03 83.7333 167.083 83.92 166.203 84.08C165.35 84.24 164.55 84.36 163.803 84.44V82.6C163.11 82.8933 162.483 83.1467 161.923 83.36C161.363 83.5467 160.83 83.7067 160.323 83.84C159.817 83.9733 159.323 84.08 158.843 84.16C158.363 84.2133 157.843 84.24 157.283 84.24C155.55 84.24 154.043 83.48 152.763 81.96C151.483 80.44 150.843 78.6667 150.843 76.64C150.843 75.4133 151.043 74.2667 151.443 73.2C151.87 72.1067 152.443 71.1467 153.163 70.32C153.883 69.4933 154.71 68.84 155.643 68.36C156.603 67.88 157.603 67.64 158.643 67.64C160.723 67.64 162.443 68 163.803 68.72V61.8ZM163.803 81.6V74.04C163.803 73.48 163.763 72.88 163.683 72.24C163.63 71.5733 163.443 70.9733 163.123 70.44C162.83 69.9067 162.35 69.4667 161.683 69.12C161.043 68.7467 160.137 68.56 158.963 68.56C158.217 68.56 157.523 68.7467 156.883 69.12C156.243 69.4933 155.683 70.0133 155.203 70.68C154.723 71.3467 154.35 72.12 154.083 73C153.817 73.88 153.683 74.84 153.683 75.88C153.683 76.92 153.83 77.8667 154.123 78.72C154.417 79.5733 154.83 80.3067 155.363 80.92C155.897 81.5067 156.51 81.96 157.203 82.28C157.923 82.6 158.71 82.76 159.563 82.76C160.39 82.76 161.203 82.6533 162.003 82.44C162.803 82.2 163.403 81.92 163.803 81.6ZM179.991 84.24C178.818 84.24 177.725 84.04 176.711 83.64C175.698 83.2133 174.818 82.64 174.071 81.92C173.325 81.1733 172.725 80.2933 172.271 79.28C171.845 78.2667 171.631 77.16 171.631 75.96C171.631 74.7333 171.845 73.6133 172.271 72.6C172.725 71.5867 173.338 70.72 174.111 70C174.885 69.2533 175.791 68.68 176.831 68.28C177.898 67.8533 179.058 67.64 180.311 67.64C181.591 67.64 182.751 67.8667 183.791 68.32C184.831 68.7467 185.725 69.3467 186.471 70.12C187.245 70.8667 187.831 71.76 188.231 72.8C188.658 73.8133 188.871 74.8933 188.871 76.04C188.871 77.1867 188.645 78.2667 188.191 79.28C187.765 80.2667 187.151 81.1333 186.351 81.88C185.578 82.6 184.645 83.1733 183.551 83.6C182.458 84.0267 181.271 84.24 179.991 84.24ZM174.511 76.28C174.511 78.52 175.031 80.28 176.071 81.56C177.111 82.84 178.471 83.48 180.151 83.48C180.978 83.48 181.751 83.3067 182.471 82.96C183.191 82.5867 183.805 82.08 184.311 81.44C184.845 80.7733 185.258 79.9867 185.551 79.08C185.845 78.1467 185.991 77.12 185.991 76C185.991 74.88 185.858 73.8533 185.591 72.92C185.325 71.9867 184.938 71.1867 184.431 70.52C183.925 69.8533 183.311 69.3333 182.591 68.96C181.871 68.5867 181.071 68.4 180.191 68.4C178.431 68.4 177.045 69.0667 176.031 70.4C175.018 71.7333 174.511 73.6933 174.511 76.28ZM213.101 83.08L214.261 82.84C214.901 82.7067 215.354 82.5467 215.621 82.36C215.888 82.1467 216.021 81.7467 216.021 81.16V74C216.021 72.4267 215.714 71.28 215.101 70.56C214.488 69.84 213.501 69.48 212.141 69.48C210.381 69.48 208.848 70.2533 207.541 71.8V80.84C207.541 81.4 207.594 81.8267 207.701 82.12C207.808 82.3867 208.101 82.5733 208.581 82.68L210.621 83.12V83.76C209.261 83.6533 207.821 83.6 206.301 83.6C204.781 83.6 203.288 83.6533 201.821 83.76V83.12L202.981 82.84C203.728 82.6533 204.261 82.4533 204.581 82.24C204.928 82 205.101 81.6 205.101 81.04V73.92C205.101 72.56 204.781 71.4933 204.141 70.72C203.501 69.92 202.621 69.52 201.501 69.52C201.048 69.52 200.528 69.6133 199.941 69.8C199.381 69.9867 198.848 70.24 198.341 70.56C197.834 70.8533 197.408 71.1867 197.061 71.56C196.714 71.9333 196.541 72.32 196.541 72.72V80.88C196.541 81.52 196.621 81.96 196.781 82.2C196.968 82.44 197.248 82.6 197.621 82.68L199.661 83.12V83.76C196.994 83.5733 194.261 83.5733 191.461 83.76V83.12L192.621 82.88C193.208 82.7467 193.594 82.56 193.781 82.32C193.994 82.08 194.101 81.68 194.101 81.12V72.48C194.101 72.16 194.074 71.8933 194.021 71.68C193.968 71.44 193.861 71.2533 193.701 71.12C193.568 70.96 193.354 70.84 193.061 70.76C192.794 70.68 192.421 70.6 191.941 70.52V69.88C193.328 69.5067 194.608 68.52 195.781 66.92H196.541V70.76C197.714 69.6933 198.754 68.9067 199.661 68.4C200.594 67.8933 201.621 67.64 202.741 67.64C203.301 67.64 203.794 67.68 204.221 67.76C204.674 67.84 205.074 67.9867 205.421 68.2C205.794 68.4133 206.141 68.72 206.461 69.12C206.781 69.4933 207.101 69.9733 207.421 70.56C208.328 69.6267 209.248 68.9067 210.181 68.4C211.141 67.8933 212.314 67.64 213.701 67.64C215.141 67.64 216.288 68.12 217.141 69.08C218.021 70.0133 218.461 71.36 218.461 73.12V81.2C218.461 82.1867 218.674 82.72 219.101 82.8L220.901 83.12V83.76C219.541 83.6533 218.168 83.6 216.781 83.6C215.394 83.6 214.168 83.64 213.101 83.72V83.08ZM231.866 84.24C230.693 84.24 229.6 84.04 228.586 83.64C227.573 83.2133 226.693 82.64 225.946 81.92C225.2 81.1733 224.6 80.2933 224.146 79.28C223.72 78.2667 223.506 77.16 223.506 75.96C223.506 74.7333 223.72 73.6133 224.146 72.6C224.6 71.5867 225.213 70.72 225.986 70C226.76 69.2533 227.666 68.68 228.706 68.28C229.773 67.8533 230.933 67.64 232.186 67.64C233.466 67.64 234.626 67.8667 235.666 68.32C236.706 68.7467 237.6 69.3467 238.346 70.12C239.12 70.8667 239.706 71.76 240.106 72.8C240.533 73.8133 240.746 74.8933 240.746 76.04C240.746 77.1867 240.52 78.2667 240.066 79.28C239.64 80.2667 239.026 81.1333 238.226 81.88C237.453 82.6 236.52 83.1733 235.426 83.6C234.333 84.0267 233.146 84.24 231.866 84.24ZM226.386 76.28C226.386 78.52 226.906 80.28 227.946 81.56C228.986 82.84 230.346 83.48 232.026 83.48C232.853 83.48 233.626 83.3067 234.346 82.96C235.066 82.5867 235.68 82.08 236.186 81.44C236.72 80.7733 237.133 79.9867 237.426 79.08C237.72 78.1467 237.866 77.12 237.866 76C237.866 74.88 237.733 73.8533 237.466 72.92C237.2 71.9867 236.813 71.1867 236.306 70.52C235.8 69.8533 235.186 69.3333 234.466 68.96C233.746 68.5867 232.946 68.4 232.066 68.4C230.306 68.4 228.92 69.0667 227.906 70.4C226.893 71.7333 226.386 73.6933 226.386 76.28Z" fill="black"/>
<defs>
<filter id="filter0_d" x="0" y="0" width="327" height="155" filterUnits="userSpaceOnUse" color-interpolation-filters="sRGB">
<feFlood flood-opacity="0" result="BackgroundImageFix"/>
<feColorMatrix in="SourceAlpha" type="matrix" values="0 0 0 0 0 0 0 0 0 0 0 0 0 0 0 0 0 0 127 0"/>
<feOffset dy="4"/>
<feGaussianBlur stdDeviation="2"/>
<feColorMatrix type="matrix" values="0 0 0 0 0 0 0 0 0 0 0 0 0 0 0 0 0 0 0.25 0"/>
<feBlend mode="normal" in2="BackgroundImageFix" result="effect1_dropShadow"/>
<feBlend mode="normal" in="SourceGraphic" in2="effect1_dropShadow" result="shape"/>
</filter>
<radialGradient id="paint0_radial" cx="0" cy="0" r="1" gradientUnits="userSpaceOnUse" gradientTransform="translate(163.5 73.5) rotate(90) scale(73.5 159.5)">
<stop offset="0.9999" stop-color="#27D88D"/>
<stop offset="1" stop-color="#79C9A7" stop-opacity="0"/>
</radialGradient>
<radialGradient id="paint1_angular" cx="0" cy="0" r="1" gradientUnits="userSpaceOnUse" gradientTransform="translate(163 91) rotate(89.4884) scale(56.0022 121.529)">
<stop offset="0.157742" stop-color="white"/>
<stop offset="0.515625" stop-color="#2743D2" stop-opacity="0.65"/>
<stop offset="0.588379" stop-color="#0C31F2" stop-opacity="0.13"/>
<stop offset="0.885417" stop-color="white" stop-opacity="0"/>
</radialGradient>
<linearGradient id="paint2_linear" x1="163" y1="88" x2="163" y2="19" gradientUnits="userSpaceOnUse">
<stop stop-color="#E82525" stop-opacity="0.71"/>
<stop offset="0.0001" stop-color="white" stop-opacity="0.04"/>
</linearGradient>
</defs>
</svg>
